<?xml version="1.0" encoding="UTF-8"?>
<svg version="1.0" xmlns="http://www.w3.org/2000/svg" xmlns:xlink="http://www.w3.org/1999/xlink" width="600" height="600">
	<circle cx="300" cy="300" r="300" fill="#039"/>
	<g id="s" transform="translate(300,60)" fill="#fc0">
		<g id="c">
			<path id="t" d="M 0,-40 V 0 H 20" transform="rotate(18 0,-40)"/>
			<use xlink:href="#t" transform="scale(-1,1)"/>
		</g>
		<use xlink:href="#c" transform="rotate(72)"/>
		<use xlink:href="#c" transform="rotate(144)"/>
		<use xlink:href="#c" transform="rotate(216)"/>
		<use xlink:href="#c" transform="rotate(288)"/>
	</g>
	<use xlink:href="#s" transform="rotate(30 300,300) rotate(330 300,60)"/>
	<use xlink:href="#s" transform="rotate(60 300,300) rotate(300 300,60)"/>
	<use xlink:href="#s" transform="rotate(90 300,300) rotate(270 300,60)"/>
	<use xlink:href="#s" transform="rotate(120 300,300) rotate(240 300,60)"/>
	<use xlink:href="#s" transform="rotate(150 300,300) rotate(210 300,60)"/>
	<use xlink:href="#s" transform="rotate(180 300,300) rotate(180 300,60)"/>
	<use xlink:href="#s" transform="rotate(210 300,300) rotate(150 300,60)"/>
	<use xlink:href="#s" transform="rotate(240 300,300) rotate(120 300,60)"/>
	<use xlink:href="#s" transform="rotate(270 300,300) rotate(90 300,60)"/>
	<use xlink:href="#s" transform="rotate(300 300,300) rotate(60 300,60)"/>
	<use xlink:href="#s" transform="rotate(330 300,300) rotate(30 300,60)"/>
</svg>